<mxfile host="app.diagrams.net" modified="2021-06-06T17:55:24.509Z" agent="5.0 (Windows NT 10.0; Win64; x64) AppleWebKit/537.36 (KHTML, like Gecko) Chrome/91.0.4472.77 Safari/537.36" etag="GDtzg8iQULBCXItmEXVJ" version="14.7.6" type="github">
  <diagram id="ldW2-i48NCAmhcWPSoT7" name="Page-1">
    <mxGraphModel dx="1038" dy="516" grid="1" gridSize="10" guides="1" tooltips="1" connect="1" arrows="1" fold="1" page="1" pageScale="1" pageWidth="850" pageHeight="1100" math="0" shadow="0">
      <root>
        <mxCell id="0" />
        <mxCell id="1" parent="0" />
        <mxCell id="RMmyxlW1aptrJxLg1BCB-1" value="" style="rounded=0;whiteSpace=wrap;html=1;" parent="1" vertex="1">
          <mxGeometry x="470" y="350" width="130" height="180" as="geometry" />
        </mxCell>
        <mxCell id="RMmyxlW1aptrJxLg1BCB-2" value="Login" style="text;html=1;strokeColor=none;fillColor=none;align=center;verticalAlign=middle;whiteSpace=wrap;rounded=0;" parent="1" vertex="1">
          <mxGeometry x="510" y="360" width="40" height="20" as="geometry" />
        </mxCell>
        <mxCell id="RMmyxlW1aptrJxLg1BCB-3" value="Email/PHone" style="rounded=1;whiteSpace=wrap;html=1;" parent="1" vertex="1">
          <mxGeometry x="490" y="400" width="90" height="30" as="geometry" />
        </mxCell>
        <mxCell id="RMmyxlW1aptrJxLg1BCB-4" value="" style="rounded=1;whiteSpace=wrap;html=1;" parent="1" vertex="1">
          <mxGeometry x="490" y="460" width="90" height="20" as="geometry" />
        </mxCell>
        <mxCell id="RMmyxlW1aptrJxLg1BCB-19" style="edgeStyle=orthogonalEdgeStyle;rounded=0;orthogonalLoop=1;jettySize=auto;html=1;" parent="1" source="RMmyxlW1aptrJxLg1BCB-6" target="RMmyxlW1aptrJxLg1BCB-10" edge="1">
          <mxGeometry relative="1" as="geometry" />
        </mxCell>
        <mxCell id="RMmyxlW1aptrJxLg1BCB-6" value="Send OTP" style="text;html=1;strokeColor=none;fillColor=none;align=center;verticalAlign=middle;whiteSpace=wrap;rounded=0;" parent="1" vertex="1">
          <mxGeometry x="497.5" y="460" width="65" height="20" as="geometry" />
        </mxCell>
        <mxCell id="RMmyxlW1aptrJxLg1BCB-10" value="loginBegin() -&amp;gt; otpsender()" style="rounded=0;whiteSpace=wrap;html=1;" parent="1" vertex="1">
          <mxGeometry x="55" y="420" width="170" height="120" as="geometry" />
        </mxCell>
        <mxCell id="RMmyxlW1aptrJxLg1BCB-14" style="edgeStyle=orthogonalEdgeStyle;rounded=0;orthogonalLoop=1;jettySize=auto;html=1;entryX=0;entryY=0;entryDx=0;entryDy=30;entryPerimeter=0;" parent="1" source="RMmyxlW1aptrJxLg1BCB-12" target="RMmyxlW1aptrJxLg1BCB-13" edge="1">
          <mxGeometry relative="1" as="geometry" />
        </mxCell>
        <mxCell id="RMmyxlW1aptrJxLg1BCB-12" value="actions - sendemailotp()" style="rounded=0;whiteSpace=wrap;html=1;" parent="1" vertex="1">
          <mxGeometry x="70" y="280" width="140" height="50" as="geometry" />
        </mxCell>
        <mxCell id="RMmyxlW1aptrJxLg1BCB-30" style="edgeStyle=orthogonalEdgeStyle;rounded=0;orthogonalLoop=1;jettySize=auto;html=1;entryX=1;entryY=1;entryDx=0;entryDy=0;" parent="1" source="RMmyxlW1aptrJxLg1BCB-13" target="RMmyxlW1aptrJxLg1BCB-12" edge="1">
          <mxGeometry relative="1" as="geometry">
            <Array as="points">
              <mxPoint x="350" y="350" />
              <mxPoint x="210" y="350" />
            </Array>
          </mxGeometry>
        </mxCell>
        <mxCell id="RMmyxlW1aptrJxLg1BCB-48" style="edgeStyle=orthogonalEdgeStyle;rounded=0;orthogonalLoop=1;jettySize=auto;html=1;entryX=0.885;entryY=-0.015;entryDx=0;entryDy=0;entryPerimeter=0;" parent="1" source="RMmyxlW1aptrJxLg1BCB-13" target="RMmyxlW1aptrJxLg1BCB-38" edge="1">
          <mxGeometry relative="1" as="geometry">
            <Array as="points">
              <mxPoint x="450" y="400" />
              <mxPoint x="376" y="400" />
            </Array>
          </mxGeometry>
        </mxCell>
        <mxCell id="RMmyxlW1aptrJxLg1BCB-66" style="edgeStyle=orthogonalEdgeStyle;rounded=0;orthogonalLoop=1;jettySize=auto;html=1;entryX=0;entryY=0.75;entryDx=0;entryDy=0;" parent="1" source="RMmyxlW1aptrJxLg1BCB-13" target="RMmyxlW1aptrJxLg1BCB-55" edge="1">
          <mxGeometry relative="1" as="geometry">
            <Array as="points">
              <mxPoint x="10" y="120" />
              <mxPoint x="10" y="775" />
            </Array>
          </mxGeometry>
        </mxCell>
        <mxCell id="RMmyxlW1aptrJxLg1BCB-13" value="server" style="shape=cube;whiteSpace=wrap;html=1;boundedLbl=1;backgroundOutline=1;darkOpacity=0.05;darkOpacity2=0.1;" parent="1" vertex="1">
          <mxGeometry x="390" y="120" width="120" height="80" as="geometry" />
        </mxCell>
        <mxCell id="RMmyxlW1aptrJxLg1BCB-15" value="userauth/sendemailotp" style="text;html=1;strokeColor=none;fillColor=none;align=center;verticalAlign=middle;whiteSpace=wrap;rounded=0;rotation=-90;" parent="1" vertex="1">
          <mxGeometry x="290" y="232" width="40" height="20" as="geometry" />
        </mxCell>
        <mxCell id="RMmyxlW1aptrJxLg1BCB-17" value="if email" style="text;html=1;strokeColor=none;fillColor=none;align=center;verticalAlign=middle;whiteSpace=wrap;rounded=0;" parent="1" vertex="1">
          <mxGeometry x="140" y="350" width="40" height="20" as="geometry" />
        </mxCell>
        <mxCell id="RMmyxlW1aptrJxLg1BCB-18" value="Phone auth by firebase" style="text;html=1;strokeColor=none;fillColor=none;align=center;verticalAlign=middle;whiteSpace=wrap;rounded=0;fontStyle=1" parent="1" vertex="1">
          <mxGeometry x="70" y="500" width="70" height="20" as="geometry" />
        </mxCell>
        <mxCell id="RMmyxlW1aptrJxLg1BCB-20" value="" style="rounded=0;whiteSpace=wrap;html=1;" parent="1" vertex="1">
          <mxGeometry x="680" y="360" width="130" height="180" as="geometry" />
        </mxCell>
        <mxCell id="RMmyxlW1aptrJxLg1BCB-21" value="OTP Check" style="text;html=1;strokeColor=none;fillColor=none;align=center;verticalAlign=middle;whiteSpace=wrap;rounded=0;" parent="1" vertex="1">
          <mxGeometry x="720" y="370" width="38" height="20" as="geometry" />
        </mxCell>
        <mxCell id="RMmyxlW1aptrJxLg1BCB-22" value="" style="rounded=1;whiteSpace=wrap;html=1;" parent="1" vertex="1">
          <mxGeometry x="690" y="430" width="110" height="20" as="geometry" />
        </mxCell>
        <mxCell id="RMmyxlW1aptrJxLg1BCB-37" style="edgeStyle=orthogonalEdgeStyle;rounded=0;orthogonalLoop=1;jettySize=auto;html=1;entryX=1.012;entryY=0.627;entryDx=0;entryDy=0;entryPerimeter=0;" parent="1" source="RMmyxlW1aptrJxLg1BCB-23" target="RMmyxlW1aptrJxLg1BCB-34" edge="1">
          <mxGeometry relative="1" as="geometry">
            <Array as="points">
              <mxPoint x="620" y="480" />
              <mxPoint x="620" y="619" />
            </Array>
          </mxGeometry>
        </mxCell>
        <mxCell id="RMmyxlW1aptrJxLg1BCB-23" value="Check OTP" style="rounded=1;whiteSpace=wrap;html=1;" parent="1" vertex="1">
          <mxGeometry x="690" y="470" width="110" height="20" as="geometry" />
        </mxCell>
        <mxCell id="RMmyxlW1aptrJxLg1BCB-25" value="" style="shape=flexArrow;endArrow=classic;startArrow=classic;html=1;entryX=0;entryY=0.5;entryDx=0;entryDy=0;exitX=1;exitY=0.5;exitDx=0;exitDy=0;" parent="1" source="RMmyxlW1aptrJxLg1BCB-1" target="RMmyxlW1aptrJxLg1BCB-20" edge="1">
          <mxGeometry width="100" height="100" relative="1" as="geometry">
            <mxPoint x="400" y="420" as="sourcePoint" />
            <mxPoint x="500" y="320" as="targetPoint" />
          </mxGeometry>
        </mxCell>
        <mxCell id="RMmyxlW1aptrJxLg1BCB-26" value="data" style="swimlane;fontStyle=0;childLayout=stackLayout;horizontal=1;startSize=26;horizontalStack=0;resizeParent=1;resizeParentMax=0;resizeLast=0;collapsible=1;marginBottom=0;flipV=0;" parent="1" vertex="1">
          <mxGeometry x="150" y="200" width="140" height="52" as="geometry" />
        </mxCell>
        <mxCell id="RMmyxlW1aptrJxLg1BCB-27" value="recipient:&quot;user_emailID&quot;" style="text;strokeColor=none;fillColor=none;align=left;verticalAlign=top;spacingLeft=4;spacingRight=4;overflow=hidden;rotatable=0;points=[[0,0.5],[1,0.5]];portConstraint=eastwest;" parent="RMmyxlW1aptrJxLg1BCB-26" vertex="1">
          <mxGeometry y="26" width="140" height="26" as="geometry" />
        </mxCell>
        <mxCell id="RMmyxlW1aptrJxLg1BCB-31" value="success" style="text;html=1;strokeColor=none;fillColor=none;align=center;verticalAlign=middle;whiteSpace=wrap;rounded=0;" parent="1" vertex="1">
          <mxGeometry x="270" y="330" width="40" height="20" as="geometry" />
        </mxCell>
        <mxCell id="RMmyxlW1aptrJxLg1BCB-33" value="&lt;font style=&quot;font-size: 8px&quot;&gt;ooCode : &quot;6DIGIT CODE&quot;&lt;/font&gt;" style="rounded=1;whiteSpace=wrap;html=1;" parent="1" vertex="1">
          <mxGeometry x="225" y="350" width="105" height="30" as="geometry" />
        </mxCell>
        <mxCell id="RMmyxlW1aptrJxLg1BCB-39" style="edgeStyle=orthogonalEdgeStyle;rounded=0;orthogonalLoop=1;jettySize=auto;html=1;entryX=1;entryY=0.5;entryDx=0;entryDy=0;" parent="1" source="RMmyxlW1aptrJxLg1BCB-34" target="RMmyxlW1aptrJxLg1BCB-38" edge="1">
          <mxGeometry relative="1" as="geometry" />
        </mxCell>
        <mxCell id="RMmyxlW1aptrJxLg1BCB-34" value="verfiyOTP" style="whiteSpace=wrap;html=1;aspect=fixed;" parent="1" vertex="1">
          <mxGeometry x="452.5" y="550" width="110" height="110" as="geometry" />
        </mxCell>
        <mxCell id="RMmyxlW1aptrJxLg1BCB-42" style="edgeStyle=orthogonalEdgeStyle;rounded=0;orthogonalLoop=1;jettySize=auto;html=1;entryX=0.316;entryY=1.008;entryDx=0;entryDy=0;entryPerimeter=0;" parent="1" source="RMmyxlW1aptrJxLg1BCB-38" target="RMmyxlW1aptrJxLg1BCB-13" edge="1">
          <mxGeometry relative="1" as="geometry">
            <Array as="points">
              <mxPoint x="350" y="365" />
              <mxPoint x="410" y="365" />
              <mxPoint x="410" y="201" />
            </Array>
          </mxGeometry>
        </mxCell>
        <mxCell id="RMmyxlW1aptrJxLg1BCB-53" style="edgeStyle=orthogonalEdgeStyle;rounded=0;orthogonalLoop=1;jettySize=auto;html=1;entryX=0.75;entryY=0;entryDx=0;entryDy=0;" parent="1" source="RMmyxlW1aptrJxLg1BCB-38" target="RMmyxlW1aptrJxLg1BCB-52" edge="1">
          <mxGeometry relative="1" as="geometry" />
        </mxCell>
        <mxCell id="RMmyxlW1aptrJxLg1BCB-38" value="action - createaccountemail()&lt;br&gt;Sign in with returned custom TOken" style="rounded=0;whiteSpace=wrap;html=1;" parent="1" vertex="1">
          <mxGeometry x="270" y="530" width="120" height="80" as="geometry" />
        </mxCell>
        <mxCell id="RMmyxlW1aptrJxLg1BCB-40" value="email" style="text;html=1;strokeColor=none;fillColor=none;align=center;verticalAlign=middle;whiteSpace=wrap;rounded=0;" parent="1" vertex="1">
          <mxGeometry x="400" y="540" width="40" height="20" as="geometry" />
        </mxCell>
        <mxCell id="RMmyxlW1aptrJxLg1BCB-41" value="" style="endArrow=classic;startArrow=classic;html=1;exitX=0.5;exitY=0;exitDx=0;exitDy=0;entryX=0.5;entryY=1;entryDx=0;entryDy=0;" parent="1" source="RMmyxlW1aptrJxLg1BCB-10" target="RMmyxlW1aptrJxLg1BCB-12" edge="1">
          <mxGeometry width="50" height="50" relative="1" as="geometry">
            <mxPoint x="160" y="630" as="sourcePoint" />
            <mxPoint x="130" y="340" as="targetPoint" />
          </mxGeometry>
        </mxCell>
        <mxCell id="KKf_zekkhN21vf2nrvpq-3" style="edgeStyle=orthogonalEdgeStyle;rounded=0;orthogonalLoop=1;jettySize=auto;html=1;entryX=1;entryY=0.5;entryDx=0;entryDy=0;fontColor=#000000;" edge="1" parent="1" source="RMmyxlW1aptrJxLg1BCB-43" target="RMmyxlW1aptrJxLg1BCB-52">
          <mxGeometry relative="1" as="geometry" />
        </mxCell>
        <mxCell id="RMmyxlW1aptrJxLg1BCB-43" value="firebase.auth signinwithPhone()" style="rounded=0;whiteSpace=wrap;html=1;" parent="1" vertex="1">
          <mxGeometry x="250" y="620" width="120" height="60" as="geometry" />
        </mxCell>
        <mxCell id="RMmyxlW1aptrJxLg1BCB-44" value="" style="endArrow=classic;html=1;exitX=0;exitY=0.75;exitDx=0;exitDy=0;entryX=1;entryY=0.25;entryDx=0;entryDy=0;" parent="1" source="RMmyxlW1aptrJxLg1BCB-34" target="RMmyxlW1aptrJxLg1BCB-43" edge="1">
          <mxGeometry width="50" height="50" relative="1" as="geometry">
            <mxPoint x="160" y="470" as="sourcePoint" />
            <mxPoint x="210" y="420" as="targetPoint" />
          </mxGeometry>
        </mxCell>
        <mxCell id="RMmyxlW1aptrJxLg1BCB-45" value="phone" style="text;html=1;strokeColor=none;fillColor=none;align=center;verticalAlign=middle;whiteSpace=wrap;rounded=0;" parent="1" vertex="1">
          <mxGeometry x="390" y="640" width="40" height="20" as="geometry" />
        </mxCell>
        <mxCell id="RMmyxlW1aptrJxLg1BCB-46" value="userauth/createaccountemail" style="text;html=1;strokeColor=none;fillColor=none;align=center;verticalAlign=middle;whiteSpace=wrap;rounded=0;rotation=-90;" parent="1" vertex="1">
          <mxGeometry x="399" y="270" width="40" height="20" as="geometry" />
        </mxCell>
        <mxCell id="RMmyxlW1aptrJxLg1BCB-47" value="{user_email:&quot;email&quot;}" style="rounded=0;whiteSpace=wrap;html=1;rotation=-90;" parent="1" vertex="1">
          <mxGeometry x="330" y="260" width="120" height="40" as="geometry" />
        </mxCell>
        <mxCell id="RMmyxlW1aptrJxLg1BCB-49" value="success" style="text;html=1;align=center;verticalAlign=middle;resizable=0;points=[];autosize=1;strokeColor=none;" parent="1" vertex="1">
          <mxGeometry x="380" y="400" width="60" height="20" as="geometry" />
        </mxCell>
        <mxCell id="RMmyxlW1aptrJxLg1BCB-51" value="customToken" style="whiteSpace=wrap;html=1;" parent="1" vertex="1">
          <mxGeometry x="370" y="370" width="80" height="30" as="geometry" />
        </mxCell>
        <mxCell id="RMmyxlW1aptrJxLg1BCB-56" style="edgeStyle=orthogonalEdgeStyle;rounded=0;orthogonalLoop=1;jettySize=auto;html=1;entryX=0.5;entryY=0;entryDx=0;entryDy=0;" parent="1" source="RMmyxlW1aptrJxLg1BCB-52" target="RMmyxlW1aptrJxLg1BCB-55" edge="1">
          <mxGeometry relative="1" as="geometry">
            <Array as="points">
              <mxPoint x="105" y="700" />
              <mxPoint x="305" y="700" />
            </Array>
          </mxGeometry>
        </mxCell>
        <mxCell id="RMmyxlW1aptrJxLg1BCB-52" value="check if userdtabse exits&lt;br&gt;checkuser()" style="shape=process;whiteSpace=wrap;html=1;backgroundOutline=1;" parent="1" vertex="1">
          <mxGeometry x="45" y="620" width="120" height="60" as="geometry" />
        </mxCell>
        <mxCell id="RMmyxlW1aptrJxLg1BCB-57" style="edgeStyle=orthogonalEdgeStyle;rounded=0;orthogonalLoop=1;jettySize=auto;html=1;" parent="1" source="RMmyxlW1aptrJxLg1BCB-55" edge="1">
          <mxGeometry relative="1" as="geometry">
            <mxPoint x="440" y="130" as="targetPoint" />
            <Array as="points">
              <mxPoint x="30" y="760" />
              <mxPoint x="30" y="80" />
              <mxPoint x="440" y="80" />
            </Array>
          </mxGeometry>
        </mxCell>
        <mxCell id="RMmyxlW1aptrJxLg1BCB-77" style="edgeStyle=orthogonalEdgeStyle;rounded=0;orthogonalLoop=1;jettySize=auto;html=1;entryX=0.5;entryY=0;entryDx=0;entryDy=0;" parent="1" source="RMmyxlW1aptrJxLg1BCB-55" target="RMmyxlW1aptrJxLg1BCB-68" edge="1">
          <mxGeometry relative="1" as="geometry" />
        </mxCell>
        <mxCell id="RMmyxlW1aptrJxLg1BCB-55" value="actions - chckdatabse()" style="rounded=0;whiteSpace=wrap;html=1;" parent="1" vertex="1">
          <mxGeometry x="245" y="730" width="120" height="60" as="geometry" />
        </mxCell>
        <mxCell id="RMmyxlW1aptrJxLg1BCB-59" value="&lt;div style=&quot;color: rgb(248 , 248 , 242) ; background-color: rgb(43 , 31 , 50) ; font-family: &amp;#34;fira code light&amp;#34; , &amp;#34;anonymous pro regular&amp;#34; , &amp;#34;consolas&amp;#34; , &amp;#34;courier new&amp;#34; , monospace , &amp;#34;consolas&amp;#34; , &amp;#34;courier new&amp;#34; , monospace ; font-size: 13px ; line-height: 18px&quot;&gt;&lt;br&gt;&lt;/div&gt;" style="text;html=1;align=center;verticalAlign=middle;resizable=0;points=[];autosize=1;strokeColor=none;" parent="1" vertex="1">
          <mxGeometry x="610" y="70" width="20" height="20" as="geometry" />
        </mxCell>
        <mxCell id="RMmyxlW1aptrJxLg1BCB-64" value="&lt;div style=&quot;font-family: &amp;#34;fira code light&amp;#34; , &amp;#34;anonymous pro regular&amp;#34; , &amp;#34;consolas&amp;#34; , &amp;#34;courier new&amp;#34; , monospace , &amp;#34;consolas&amp;#34; , &amp;#34;courier new&amp;#34; , monospace ; font-size: 11px&quot;&gt;&lt;span&gt;type:&amp;nbsp;this.state.logtype,&lt;/span&gt;&lt;br&gt;&lt;/div&gt;&lt;div style=&quot;font-family: &amp;#34;fira code light&amp;#34; , &amp;#34;anonymous pro regular&amp;#34; , &amp;#34;consolas&amp;#34; , &amp;#34;courier new&amp;#34; , monospace , &amp;#34;consolas&amp;#34; , &amp;#34;courier new&amp;#34; , monospace ; font-size: 11px&quot;&gt;&lt;font style=&quot;font-size: 11px&quot;&gt;&amp;nbsp; data:&amp;nbsp;this.state.loginput,&lt;/font&gt;&lt;/div&gt;&lt;div style=&quot;font-family: &amp;#34;fira code light&amp;#34; , &amp;#34;anonymous pro regular&amp;#34; , &amp;#34;consolas&amp;#34; , &amp;#34;courier new&amp;#34; , monospace , &amp;#34;consolas&amp;#34; , &amp;#34;courier new&amp;#34; , monospace ; font-size: 11px&quot;&gt;&lt;font style=&quot;font-size: 11px&quot;&gt;&amp;nbsp;uid:&amp;nbsp;auth.currentUser.uid,&lt;/font&gt;&lt;/div&gt;&lt;div style=&quot;font-family: &amp;#34;fira code light&amp;#34; , &amp;#34;anonymous pro regular&amp;#34; , &amp;#34;consolas&amp;#34; , &amp;#34;courier new&amp;#34; , monospace , &amp;#34;consolas&amp;#34; , &amp;#34;courier new&amp;#34; , monospace ; font-size: 11px&quot;&gt;&lt;font style=&quot;font-size: 11px&quot;&gt;&amp;nbsp; &amp;nbsp;&amp;nbsp;&lt;/font&gt;&lt;/div&gt;" style="rounded=0;whiteSpace=wrap;html=1;" parent="1" vertex="1">
          <mxGeometry x="80" y="30" width="220" height="50" as="geometry" />
        </mxCell>
        <mxCell id="RMmyxlW1aptrJxLg1BCB-65" value="/userauth/createdbnew" style="text;html=1;strokeColor=none;fillColor=none;align=center;verticalAlign=middle;whiteSpace=wrap;rounded=0;" parent="1" vertex="1">
          <mxGeometry x="130" y="80" width="40" height="20" as="geometry" />
        </mxCell>
        <mxCell id="RMmyxlW1aptrJxLg1BCB-67" value="status" style="text;html=1;strokeColor=none;fillColor=none;align=center;verticalAlign=middle;whiteSpace=wrap;rounded=0;" parent="1" vertex="1">
          <mxGeometry x="130" y="120" width="40" height="20" as="geometry" />
        </mxCell>
        <mxCell id="RMmyxlW1aptrJxLg1BCB-72" style="edgeStyle=orthogonalEdgeStyle;rounded=0;orthogonalLoop=1;jettySize=auto;html=1;entryX=0;entryY=0.5;entryDx=0;entryDy=0;" parent="1" target="RMmyxlW1aptrJxLg1BCB-71" edge="1">
          <mxGeometry relative="1" as="geometry">
            <mxPoint x="340" y="860" as="sourcePoint" />
          </mxGeometry>
        </mxCell>
        <mxCell id="RMmyxlW1aptrJxLg1BCB-78" style="edgeStyle=orthogonalEdgeStyle;rounded=0;orthogonalLoop=1;jettySize=auto;html=1;entryX=0.623;entryY=0;entryDx=0;entryDy=0;entryPerimeter=0;" parent="1" source="RMmyxlW1aptrJxLg1BCB-68" target="RMmyxlW1aptrJxLg1BCB-70" edge="1">
          <mxGeometry relative="1" as="geometry" />
        </mxCell>
        <mxCell id="RMmyxlW1aptrJxLg1BCB-68" value="status==&quot;not exits&quot;" style="rhombus;whiteSpace=wrap;html=1;" parent="1" vertex="1">
          <mxGeometry x="265" y="820" width="80" height="80" as="geometry" />
        </mxCell>
        <mxCell id="RMmyxlW1aptrJxLg1BCB-70" value="setup profile page" style="whiteSpace=wrap;html=1;aspect=fixed;" parent="1" vertex="1">
          <mxGeometry x="255" y="930" width="80" height="80" as="geometry" />
        </mxCell>
        <mxCell id="RMmyxlW1aptrJxLg1BCB-71" value="landing or booking page" style="whiteSpace=wrap;html=1;aspect=fixed;" parent="1" vertex="1">
          <mxGeometry x="410" y="820" width="80" height="80" as="geometry" />
        </mxCell>
        <mxCell id="RMmyxlW1aptrJxLg1BCB-74" value="yes" style="text;html=1;strokeColor=none;fillColor=none;align=center;verticalAlign=middle;whiteSpace=wrap;rounded=0;" parent="1" vertex="1">
          <mxGeometry x="300" y="900" width="40" height="20" as="geometry" />
        </mxCell>
        <mxCell id="RMmyxlW1aptrJxLg1BCB-76" value="no .. exist" style="text;html=1;strokeColor=none;fillColor=none;align=center;verticalAlign=middle;whiteSpace=wrap;rounded=0;" parent="1" vertex="1">
          <mxGeometry x="350" y="830" width="40" height="20" as="geometry" />
        </mxCell>
      </root>
    </mxGraphModel>
  </diagram>
</mxfile>
